<svg class="icon" viewBox="0 0 1024 1024" version="1.1" xmlns="http://www.w3.org/2000/svg" width="800" height="800" xmlns:xlink="http://www.w3.org/1999/xlink"><path d="M511.341714 56.137143c-255.122286 0-440.758857 226.596571-436.882285 436.882286l0.036571 0.658285c-3.291429 6.436571-0.438857 60.964571 7.533714 112.603429 10.349714 67.620571 22.089143 82.395429 37.302857 148.114286 27.721143 119.771429 7.460571 152.100571 33.572572 170.313142 37.266286 25.965714 125.44-6.838857 179.382857-53.467428 39.277714 22.454857 99.328 56.649143 179.053714 58.660571 189.366857 4.754286 436.845714-173.421714 436.845715-436.882285 0-241.261714-195.547429-436.882286-436.845715-436.882286z m5.668572 657.298286a220.562286 220.562286 0 0 1-116.041143-32.219429c-13.458286 14.592-31.268571 25.965714-53.869714 32.182857-23.588571-13.165714-63.341714-77.238857-51.090286-224l0.219428-0.914286c3.620571-118.272 101.741714-213.467429 221.988572-213.76 122.368-0.365714 221.293714 97.645714 220.964571 218.733715-0.365714 121.197714-99.84 219.684571-222.171428 219.977143z" fill="#E1251B"/></svg>